<svg width="64" height="64" viewBox="0 0 100 100" fill="none" xmlns="http://www.w3.org/2000/svg">
  <circle cx="50" cy="50" r="50" fill="#2C1810"/>
  <g transform="translate(0, -2) scale(1.04)">
    <path
      d="M10 20C10 15 15 10 20 10H80C85 10 90 15 90 20V60C90 70 70 90 50 90C30 90 10 70 10 60V20Z"
      stroke="#D4A574"
      stroke-width="3"
    />
    <path
      d="M15 22C15 18.6863 17.6863 16 21 16H79C82.3137 16 85 18.6863 85 22V58C85 65.1797 69.4036 85 50 85C30.5964 85 15 65.1797 15 58V22Z"
      stroke="#D4A574"
      stroke-width="1"
    />
    <g opacity="0.3">
      <path
        d="M32 35C30 45 28 55 30 65"
        stroke="#D4A574"
        stroke-width="1.5"
        stroke-linecap="round"
      />
      <path
        d="M32 38C35 39 37 42 35 45"
        stroke="#D4A574"
        stroke-width="1.5"
        stroke-linecap="round"
      />
      <path
        d="M31 48C34 49 36 52 34 55"
        stroke="#D4A574"
        stroke-width="1.5"
        stroke-linecap="round"
      />
      <path
        d="M30.5 58C33.5 59 35.5 62 33.5 65"
        stroke="#D4A574"
        stroke-width="1.5"
        stroke-linecap="round"
      />
    </g>
    <g opacity="0.3" transform="scale(-1, 1) translate(-100, 0)">
      <path
        d="M32 35C30 45 28 55 30 65"
        stroke="#D4A574"
        stroke-width="1.5"
        stroke-linecap="round"
      />
      <path
        d="M32 38C35 39 37 42 35 45"
        stroke="#D4A574"
        stroke-width="1.5"
        stroke-linecap="round"
      />
      <path
        d="M31 48C34 49 36 52 34 55"
        stroke="#D4A574"
        stroke-width="1.5"
        stroke-linecap="round"
      />
      <path
        d="M30.5 58C33.5 59 35.5 62 33.5 65"
        stroke="#D4A574"
        stroke-width="1.5"
        stroke-linecap="round"
      />
    </g>
    <g fill="#FDFBF7">
      <rect x="47" y="25" width="6" height="50" rx="1" />
      <rect x="35" y="47" width="30" height="6" rx="1" />
      <circle cx="50" cy="22" r="2.5" stroke="#FDFBF7" stroke-width="1" fill="none" />
      <circle cx="50" cy="78" r="2.5" stroke="#FDFBF7" stroke-width="1" fill="none" />
      <circle cx="32" cy="50" r="2.5" stroke="#FDFBF7" stroke-width="1" fill="none" />
      <circle cx="68" cy="50" r="2.5" stroke="#FDFBF7" stroke-width="1" fill="none" />
    </g>
    <circle cx="50" cy="50" r="4" fill="#D4A574" />
    <text
      x="50"
      y="70"
      font-family="Cinzel, serif"
      font-size="8"
      fill="#D4A574"
      text-anchor="middle"
    >
      <tspan>• 1881 •</tspan>
    </text>
  </g>
</svg>
