<svg xmlns="http://www.w3.org/2000/svg" viewBox="0 0 512 512" width="512" height="512"><circle cx="256" cy="256" r="256" fill="#2C1810"/><path d="M152,280 L152,195 Q152,148 190,148 L322,148 Q360,148 360,195 L360,280 L360,340 Q360,405 256,420 Q152,405 152,340 Z" fill="none" stroke="#D4A574" stroke-width="7"/><path d="M165,278 L165,200 Q165,160 198,160 L314,160 Q347,160 347,200 L347,278 L347,335 Q347,393 256,407 Q165,393 165,335 Z" fill="none" stroke="#D4A574" stroke-width="3" opacity="0.35"/><rect x="244" y="185" width="24" height="130" rx="4" fill="#FDFBF7"/><rect x="213" y="228" width="86" height="24" rx="4" fill="#FDFBF7"/><circle cx="256" cy="240" r="9" fill="#D4A574"/><circle cx="256" cy="193" r="7" fill="none" stroke="#D4A574" stroke-width="2.5"/><circle cx="256" cy="307" r="7" fill="none" stroke="#D4A574" stroke-width="2.5"/><circle cx="219" cy="247" r="7" fill="none" stroke="#D4A574" stroke-width="2.5"/><circle cx="293" cy="247" r="7" fill="none" stroke="#D4A574" stroke-width="2.5"/><path d="M240,348 Q210,310 205,260" fill="none" stroke="#D4A574" stroke-width="2.5" opacity="0.6"/><ellipse cx="225" cy="340" rx="10" ry="5" fill="#D4A574" opacity="0.25" transform="rotate(-30,225,340)"/><ellipse cx="218" cy="322" rx="10" ry="5" fill="#D4A574" opacity="0.3" transform="rotate(-35,218,322)"/><ellipse cx="213" cy="304" rx="10" ry="5" fill="#D4A574" opacity="0.35" transform="rotate(-40,213,304)"/><ellipse cx="210" cy="286" rx="10" ry="5" fill="#D4A574" opacity="0.4" transform="rotate(-45,210,286)"/><path d="M272,348 Q302,310 307,260" fill="none" stroke="#D4A574" stroke-width="2.5" opacity="0.6"/><ellipse cx="287" cy="340" rx="10" ry="5" fill="#D4A574" opacity="0.25" transform="rotate(30,287,340)"/><ellipse cx="294" cy="322" rx="10" ry="5" fill="#D4A574" opacity="0.3" transform="rotate(35,294,322)"/><ellipse cx="299" cy="304" rx="10" ry="5" fill="#D4A574" opacity="0.35" transform="rotate(40,299,304)"/><ellipse cx="302" cy="286" rx="10" ry="5" fill="#D4A574" opacity="0.4" transform="rotate(45,302,286)"/><text x="256" y="378" text-anchor="middle" fill="#D4A574" font-family="Georgia,serif" font-size="26" font-weight="600" letter-spacing="6">1881</text><circle cx="218" cy="374" r="3" fill="#D4A574"/><circle cx="294" cy="374" r="3" fill="#D4A574"/></svg>
